<svg width="20" height="20" viewBox="0 0 20 20" fill="none" xmlns="http://www.w3.org/2000/svg">
<path fill-rule="evenodd" clip-rule="evenodd" d="M10.9459 7.12903L17.6001 5.19971L15.9439 11.927L13.8777 9.94355L10.5449 13.4152C10.4318 13.5331 10.2755 13.5997 10.1121 13.5997C9.94872 13.5997 9.79241 13.5331 9.67927 13.4152L7.2321 10.8661L3.63293 14.6152C3.40345 14.8543 3.02363 14.862 2.78458 14.6325C2.54553 14.4031 2.53778 14.0232 2.76727 13.7842L6.79927 9.58419C6.91241 9.46633 7.06872 9.39971 7.2321 9.39971C7.39548 9.39971 7.55179 9.46633 7.66493 9.58419L10.1121 12.1333L13.0121 9.11251L10.9459 7.12903Z" fill="#D9D9D9"/>
</svg>
