<svg width="50" height="42" viewBox="0 0 50 42" fill="none" xmlns="http://www.w3.org/2000/svg">
<path d="M2.67188 0C1.19454 0 0 1.17892 0 2.65625V38.6562C0 40.1336 1.19454 41.3281 2.67188 41.3281H47.2031C48.6805 41.3281 49.875 40.1336 49.875 38.6562V2.65625C49.875 1.17892 48.6805 0 47.2031 0H2.67188ZM26.7188 2.92188H44.7969C45.6435 2.92188 46.3281 3.60652 46.3281 4.45312V18.875H26.7188V2.92188ZM3.54688 22.4531H23.1406V38.3906H5.0625C4.21589 38.3906 3.54688 37.7216 3.54688 36.875V22.4531ZM26.7188 22.4531H46.3281V36.875C46.3281 37.7216 45.6435 38.3906 44.7969 38.3906H26.7188V22.4531Z" fill="#ABABAB"/>
</svg>
