<svg width="800" height="800" viewBox="0 0 800 800" fill="none" xmlns="http://www.w3.org/2000/svg">
<path d="M737.925 337.925L400.009 675.847L62.0773 337.922C47.8786 323.723 24.8531 323.721 10.6519 337.925C-3.54933 352.126 -3.54933 375.149 10.6519 389.35L374.298 752.986C381.117 759.806 390.366 763.636 400.009 763.636C409.653 763.636 418.904 759.803 425.721 752.984L789.348 389.348C803.549 375.146 803.549 352.123 789.348 337.922C775.149 323.723 752.123 323.721 737.925 337.925Z" fill="#ABABAB"/>
<path d="M374.298 462.077C381.117 468.897 390.366 472.727 400.009 472.727C409.653 472.727 418.904 468.894 425.721 462.075L789.348 98.4387C803.549 84.2375 803.549 61.2144 789.348 47.0132C775.149 32.812 752.123 32.812 737.922 47.0132L400.007 384.936L62.0773 47.0132C47.8786 32.812 24.8531 32.812 10.6519 47.0132C-3.54933 61.2144 -3.54933 84.2375 10.6519 98.4387L374.298 462.077Z" fill="#ABABAB"/>
</svg>
