<svg width="49" height="48" viewBox="0 0 49 48" fill="none" xmlns="http://www.w3.org/2000/svg">
<path d="M44.9375 24.4078V27.45C44.9375 35.2516 44.9375 39.1526 42.5943 41.5762C40.2513 44 36.4799 44 28.9375 44H20.9375C13.395 44 9.6238 44 7.28064 41.5762C4.9375 39.1526 4.9375 35.2516 4.9375 27.45V24.4078C4.9375 19.831 4.9375 17.5426 5.9759 15.6455C7.0143 13.7484 8.9114 12.571 12.7056 10.2163L16.7056 7.73374C20.7163 5.24458 22.7217 4 24.9375 4C27.1533 4 29.1587 5.24458 33.1695 7.73374L37.1695 10.2162C40.9637 12.571 42.8607 13.7484 43.8991 15.6455" stroke="#ABABAB" stroke-width="3" stroke-linecap="round"/>
<path d="M30.9375 36H18.9375" stroke="#ABABAB" stroke-width="3" stroke-linecap="round"/>
</svg>
