<svg width="49" height="51" viewBox="0 0 49 51" fill="none" xmlns="http://www.w3.org/2000/svg">
<path d="M4.0835 27.625H10.5357C12.3837 27.625 13.3078 27.625 14.12 28.0139C14.9322 28.4025 15.5336 29.1329 16.7363 30.5932L17.9724 32.0943C19.1751 33.5546 19.7764 34.285 20.5887 34.6736C21.4009 35.0625 22.325 35.0625 24.1729 35.0625H24.8274C26.6754 35.0625 27.5994 35.0625 28.4116 34.6736C29.224 34.285 29.8252 33.5546 31.028 32.0943L32.264 30.5932C33.4668 29.1329 34.068 28.4025 34.8804 28.0139C35.6926 27.625 36.6166 27.625 38.4645 27.625H44.9168" stroke="#ABABAB" stroke-width="3.125" stroke-linecap="round"/>
<path d="M44.9168 25.5C44.9168 35.5172 44.9168 40.5261 41.9268 43.6379C38.937 46.75 34.1246 46.75 24.5002 46.75C14.8756 46.75 10.0634 46.75 7.07346 43.6379C4.0835 40.5261 4.0835 35.5172 4.0835 25.5C4.0835 15.4826 4.0835 10.474 7.07346 7.362C10.0634 4.25 14.8756 4.25 24.5002 4.25C34.1246 4.25 38.937 4.25 41.9268 7.362C43.915 9.4312 44.5812 12.3389 44.8043 17" stroke="#ABABAB" stroke-width="3.125" stroke-linecap="round"/>
</svg>
