<svg width="42" height="42" viewBox="0 0 42 42" fill="none" xmlns="http://www.w3.org/2000/svg">
<path fill-rule="evenodd" clip-rule="evenodd" d="M4.16667 2.08333C4.16667 1.5308 3.94717 1.00089 3.55647 0.610194C3.16577 0.219493 2.63587 0 2.08333 0C1.5308 0 1.00089 0.219493 0.610194 0.610194C0.219493 1.00089 0 1.5308 0 2.08333V37.9167C0 38.9112 0.395088 39.8651 1.09835 40.5683C1.80161 41.2716 2.75544 41.6667 3.75 41.6667H39.5833C40.1359 41.6667 40.6658 41.4472 41.0565 41.0565C41.4472 40.6658 41.6667 40.1359 41.6667 39.5833C41.6667 39.0308 41.4472 38.5009 41.0565 38.1102C40.6658 37.7195 40.1359 37.5 39.5833 37.5H4.16667V2.08333ZM41.0562 11.8896C41.4357 11.4967 41.6457 10.9704 41.641 10.4242C41.6362 9.87792 41.4171 9.35539 41.0309 8.96913C40.6446 8.58286 40.1221 8.36376 39.5758 8.35901C39.0296 8.35426 38.5033 8.56425 38.1104 8.94375L25 22.0542L18.1396 15.1937C17.7489 14.8032 17.2191 14.5838 16.6667 14.5838C16.1142 14.5838 15.5844 14.8032 15.1937 15.1937L6.86042 23.5271C6.66144 23.7193 6.50272 23.9491 6.39354 24.2033C6.28435 24.4575 6.22688 24.7309 6.22448 25.0075C6.22207 25.2841 6.27479 25.5585 6.37954 25.8145C6.48429 26.0705 6.63898 26.3031 6.83459 26.4987C7.0302 26.6943 7.26281 26.849 7.51885 26.9538C7.77488 27.0585 8.04921 27.1113 8.32584 27.1089C8.60246 27.1065 8.87583 27.049 9.13001 26.9398C9.38418 26.8306 9.61407 26.6719 9.80625 26.4729L16.6667 19.6125L23.5271 26.4729C23.9178 26.8635 24.4476 27.0829 25 27.0829C25.5524 27.0829 26.0822 26.8635 26.4729 26.4729L41.0562 11.8896Z" fill="#ABABAB"/>
</svg>
