<svg width="42" height="48" viewBox="0 0 42 48" fill="none" xmlns="http://www.w3.org/2000/svg">
<path d="M6.37209 0C2.85858 0 0 2.85858 0 6.37209C0 9.88559 2.85858 12.7442 6.37209 12.7442C9.88559 12.7442 12.7442 9.88559 12.7442 6.37209C12.7442 2.85858 9.88575 0 6.37209 0ZM6.37209 9.94667C4.40094 9.94667 2.7975 8.34308 2.7975 6.37209C2.7975 4.40109 4.40094 2.7975 6.37209 2.7975C8.34324 2.7975 9.94667 4.40109 9.94667 6.37209C9.94667 8.34308 8.34339 9.94667 6.37209 9.94667Z" fill="#ABABAB"/>
<path d="M40.2531 7.61279H16.6297C15.8571 7.61279 15.231 8.23897 15.231 9.01154C15.231 9.78412 15.8571 10.4103 16.6297 10.4103H40.2531C41.0256 10.4103 41.6518 9.78412 41.6518 9.01154C41.6518 8.23897 41.0256 7.61279 40.2531 7.61279Z" fill="#ABABAB"/>
<path d="M16.6297 5.13149H40.2531C41.0256 5.13149 41.6518 4.50531 41.6518 3.73274C41.6518 2.96016 41.0256 2.33398 40.2531 2.33398H16.6297C15.8571 2.33398 15.231 2.96016 15.231 3.73274C15.2311 4.50531 15.8573 5.13149 16.6297 5.13149Z" fill="#ABABAB"/>
<path d="M6.37209 17.6279C2.85858 17.6279 0 20.4865 0 24C0 27.5135 2.85858 30.3721 6.37209 30.3721C9.88559 30.3721 12.7442 27.5135 12.7442 24C12.7442 20.4865 9.88575 17.6279 6.37209 17.6279ZM6.37209 27.5746C4.40094 27.5746 2.7975 25.971 2.7975 24C2.7975 22.029 4.40094 20.4254 6.37209 20.4254C8.34324 20.4254 9.94667 22.029 9.94667 24C9.94667 25.971 8.34339 27.5746 6.37209 27.5746Z" fill="#ABABAB"/>
<path d="M40.2531 25.2407H16.6297C15.8571 25.2407 15.231 25.8669 15.231 26.6395C15.231 27.4121 15.8571 28.0382 16.6297 28.0382H40.2531C41.0256 28.0382 41.6518 27.4121 41.6518 26.6395C41.6518 25.8669 41.0256 25.2407 40.2531 25.2407Z" fill="#ABABAB"/>
<path d="M40.2531 19.9619H16.6297C15.8571 19.9619 15.231 20.5881 15.231 21.3607C15.231 22.1332 15.8571 22.7594 16.6297 22.7594H40.2531C41.0256 22.7594 41.6518 22.1332 41.6518 21.3607C41.6518 20.5881 41.0256 19.9619 40.2531 19.9619Z" fill="#ABABAB"/>
<path d="M6.37209 35.2559C2.85858 35.2559 0 38.1144 0 41.6279C0 45.1415 2.85858 48 6.37209 48C9.88559 48 12.7442 45.1415 12.7442 41.6279C12.7442 38.1144 9.88575 35.2559 6.37209 35.2559ZM6.37209 45.2025C4.40094 45.2025 2.7975 43.5989 2.7975 41.6279C2.7975 39.6569 4.40094 38.0534 6.37209 38.0534C8.34324 38.0534 9.94667 39.6569 9.94667 41.6279C9.94667 43.5989 8.34339 45.2025 6.37209 45.2025Z" fill="#ABABAB"/>
<path d="M40.2531 42.8687H16.6297C15.8571 42.8687 15.231 43.4948 15.231 44.2674C15.231 45.04 15.8571 45.6662 16.6297 45.6662H40.2531C41.0256 45.6662 41.6518 45.04 41.6518 44.2674C41.6518 43.4948 41.0256 42.8687 40.2531 42.8687Z" fill="#ABABAB"/>
<path d="M40.2531 37.5898H16.6297C15.8571 37.5898 15.231 38.216 15.231 38.9886C15.231 39.7612 15.8571 40.3873 16.6297 40.3873H40.2531C41.0256 40.3873 41.6518 39.7612 41.6518 38.9886C41.6518 38.216 41.0256 37.5898 40.2531 37.5898Z" fill="#ABABAB"/>
<path d="M6.37216 7.63445C7.0693 7.63445 7.63445 7.0693 7.63445 6.37216C7.63445 5.67501 7.0693 5.10986 6.37216 5.10986C5.67501 5.10986 5.10986 5.67501 5.10986 6.37216C5.10986 7.0693 5.67501 7.63445 6.37216 7.63445Z" fill="#ABABAB"/>
<path d="M6.37216 25.2624C7.0693 25.2624 7.63445 24.6972 7.63445 24.0001C7.63445 23.3029 7.0693 22.7378 6.37216 22.7378C5.67501 22.7378 5.10986 23.3029 5.10986 24.0001C5.10986 24.6972 5.67501 25.2624 6.37216 25.2624Z" fill="#ABABAB"/>
</svg>
